<?xml version="1.0" encoding="utf-8"?>
<!-- Generator: Adobe Illustrator 26.0.1, SVG Export Plug-In . SVG Version: 6.00 Build 0)  -->
<svg version="1.1" id="Layer_1" xmlns="http://www.w3.org/2000/svg" xmlns:xlink="http://www.w3.org/1999/xlink" x="0px" y="0px"
	 viewBox="0 0 1000 1000" style="enable-background:new 0 0 1000 1000;" xml:space="preserve">
<style type="text/css">
	.st0{fill:#FEFEFE;}
	.st1{fill:#020202;}
	.st2{fill:#0A0A0A;}
	.st3{fill:#060707;}
	.st4{fill:#26AEC7;}
	.st5{fill:#23ADC7;}
</style>
<g>
	<g>
		<path class="st0" d="M0.09,499.5C0.09,334.53,0.11,169.56,0,4.59C0,0.84,0.84,0,4.59,0c330.27,0.1,660.54,0.1,990.81,0
			c3.75,0,4.59,0.84,4.59,4.59c-0.1,330.27-0.1,660.54,0,990.82c0,3.75-0.84,4.59-4.59,4.59c-330.27-0.1-660.54-0.1-990.81,0
			c-3.75,0-4.6-0.84-4.59-4.59C0.11,830.11,0.09,664.8,0.09,499.5z M509.54,443.01c116.8,0,233.59,0.01,350.39-0.01
			c33.71-0.01,59.98-26.38,59.99-60.16c0.02-55.82,0.02-111.63,0-167.45c-0.01-34.09-26.23-60.33-60.32-60.33
			c-233.43-0.01-466.85-0.01-700.28,0c-34.05,0-60.23,26.28-60.24,60.4c-0.01,55.32-0.01,110.63,0,165.95
			c0,35.85,25.73,61.59,61.57,61.59C276.94,443.01,393.24,443.01,509.54,443.01z M580.17,570.48c1.33,0.9,1.1,2.43,1.4,3.6
			c9.44,36.52,18.84,73.05,28.06,109.62c0.86,3.42,2.14,4.47,5.63,4.37c9.49-0.27,19-0.23,28.49-0.01c3.03,0.07,4.34-0.89,5.07-3.77
			c8.74-34.63,17.53-69.25,26.47-103.84c0.85-3.31,0.89-7.04,3.72-10.57c0,1.81,0,2.8,0,3.79c-0.02,36.66-0.04,73.31-0.05,109.97
			c0,2.23-0.74,4.52,3.22,4.43c11.49-0.27,22.99-0.18,34.49-0.04c2.72,0.03,3.27-0.89,3.26-3.44c-0.07-51.15-0.08-102.31,0-153.46
			c0-2.94-0.65-4.09-3.84-4.07c-19.33,0.13-38.66,0.12-57.98,0.01c-2.85-0.02-3.95,0.83-4.65,3.69
			c-4.1,16.61-8.46,33.16-12.73,49.73c-3.65,14.14-7.29,28.28-11.2,43.46c-0.79-2.43-1.31-3.79-1.68-5.2
			c-7.57-29.11-15.19-58.2-22.57-87.35c-0.81-3.19-1.85-4.36-5.2-4.33c-19.16,0.15-38.32,0.16-57.48,0
			c-3.34-0.03-4.21,0.92-4.21,4.2c0.1,50.99,0.1,101.97-0.01,152.96c-0.01,3.19,0.92,3.87,3.91,3.82
			c10.83-0.17,21.67-0.26,32.49,0.03c4,0.11,4.85-1.08,4.83-4.95c-0.17-36.16-0.12-72.31-0.1-108.47
			C579.49,573.28,578.93,571.74,580.17,570.48z M297.83,687.97c-0.2-0.92-0.19-1.27-0.34-1.52c-19.31-31.48-38.59-62.99-58.03-94.39
			c-1.87-3.03-1.94-4.78,0.71-7.46c17.54-17.79,34.88-35.78,52.23-53.76c0.9-0.93,2.74-1.5,2.15-3.71
			c-20.96,0-41.91,0.04-62.87-0.06c-2.47-0.01-3.52,1.56-4.78,3.03c-13.01,15.17-26,30.36-39,45.53c-3.18,3.71-6.39,7.39-9.71,11.24
			c-1.19-2.03-0.69-3.72-0.69-5.33c-0.04-16.82-0.09-33.65,0.04-50.47c0.02-2.95-0.63-4.06-3.83-4.02
			c-13.99,0.17-27.99,0.2-41.98-0.02c-3.32-0.05-3.71,1.13-3.71,3.97c0.08,51.14,0.08,102.28,0,153.42c0,2.78,0.68,3.63,3.54,3.6
			c14.16-0.15,28.32-0.16,42.48,0c2.96,0.03,3.54-0.94,3.49-3.68c-0.16-10.49,0.01-20.99-0.11-31.48c-0.03-2.68,0.66-4.69,2.59-6.64
			c6.9-6.99,13.74-14.05,20.36-21.31c2.49-2.73,3.25-1.91,4.66,0.87c9.92,19.58,19.98,39.08,30,58.6c0.95,1.86,1.55,3.69,4.53,3.66
			C258.87,687.88,278.19,687.97,297.83,687.97z M735.91,687.97c16.48,0,32.46-0.07,48.43,0.07c2.55,0.02,3.02-1.41,3.54-3.17
			c1.89-6.37,3.94-12.7,5.56-19.14c0.74-2.92,1.89-3.95,5-3.92c16.33,0.17,32.66,0.17,48.99,0c2.95-0.03,4.04,1.04,4.78,3.66
			c1.81,6.39,4.08,12.65,5.75,19.07c0.75,2.88,2.05,3.53,4.82,3.5c13.5-0.14,26.99-0.06,40.49-0.06c2.55,0,5.1,0,7.48,0
			c0.14-0.91,0.24-1.09,0.19-1.23c-19.64-52.2-39.31-104.4-58.9-156.62c-0.92-2.46-2.3-3.06-4.79-3.05
			c-15.33,0.12-30.66,0.2-45.99-0.04c-3.68-0.06-5.12,1.2-6.36,4.52c-14.18,37.94-28.55,75.82-42.86,113.71
			C746.73,659.36,741.39,673.46,735.91,687.97z M314.17,607.68c0,25.31,0.03,50.62-0.04,75.93c-0.01,2.8,0.02,4.46,3.79,4.45
			c40.13-0.15,80.26-0.12,120.4-0.04c2.76,0.01,3.68-0.63,3.63-3.55c-0.18-10.49-0.23-20.98,0.02-31.47
			c0.09-3.6-1.06-4.36-4.46-4.34c-22.65,0.15-45.29-0.04-67.94,0.18c-4.27,0.04-5.6-0.77-5.57-5.39
			c0.23-37.13,0.07-74.27,0.22-111.4c0.02-3.92-0.93-5.1-4.95-5.02c-13.48,0.26-26.98,0.24-40.46,0.01
			c-3.75-0.07-4.75,0.95-4.72,4.7C314.25,557.06,314.17,582.37,314.17,607.68z M561.9,768.28c1.9,2.69,2.96,4.11,3.94,5.59
			c10.11,15.26,20.26,30.5,30.25,45.83c1.53,2.35,3.13,3.4,6,3.31c6.99-0.21,13.99-0.21,20.98-0.01c3.04,0.09,3.99-0.79,3.98-3.91
			c-0.11-31.14-0.11-62.29,0-93.43c0.01-3.29-1.29-3.83-4.12-3.76c-6.66,0.16-13.34,0.33-19.98-0.05c-4.22-0.24-4.9,1.43-4.86,5.14
			c0.18,14.82,0.1,29.64,0.03,44.47c-0.01,1.31,0.81,2.94-1.02,4.15c-1.06-1.58-2.08-3.08-3.08-4.59
			c-10.09-15.27-20.23-30.51-30.21-45.85c-1.54-2.37-3.18-3.35-6.02-3.27c-6.82,0.2-13.66,0.2-20.48,0
			c-3.12-0.09-4.35,0.63-4.34,4.08c0.13,30.98,0.13,61.95,0,92.93c-0.01,3.41,1.16,4.2,4.31,4.1c6.66-0.21,13.33-0.29,19.98,0.02
			c3.78,0.18,4.77-1.02,4.72-4.74C561.79,802.14,561.9,785.99,561.9,768.28z M766.15,775.25c-0.35,0.09-0.7,0.18-1.05,0.27
			c-1.02-1.48-2.07-2.94-3.06-4.44c-10.09-15.27-20.19-30.54-30.25-45.83c-1.2-1.83-2.2-3.44-4.95-3.37
			c-7.49,0.21-14.99,0.17-22.48,0.02c-2.68-0.05-3.38,0.95-3.38,3.49c0.07,31.31,0.07,62.62-0.01,93.93
			c-0.01,2.87,0.93,3.72,3.72,3.66c7.16-0.16,14.33-0.21,21.48,0.02c3.33,0.11,3.77-1.36,3.75-4.16
			c-0.1-14.82-0.05-29.65-0.05-44.47c0-1.57,0-3.14,0-6.05c1.87,2.61,2.94,4.01,3.91,5.48c10.11,15.26,20.25,30.5,30.26,45.83
			c1.51,2.31,3.04,3.49,5.97,3.39c6.99-0.23,13.99-0.19,20.98-0.02c2.93,0.07,4.06-0.62,4.05-3.84c-0.12-31.14-0.12-62.29,0-93.43
			c0.01-3.21-1.1-3.93-4.04-3.84c-6.49,0.19-13.01,0.37-19.48-0.05c-4.54-0.3-5.54,1.24-5.47,5.57
			C766.31,743.36,766.15,759.31,766.15,775.25z M888.89,764.95c-6.83,0-13.66,0.09-20.49-0.05c-2.62-0.05-3.52,0.84-3.43,3.45
			c0.16,4.83,0.14,9.66,0.01,14.49c-0.06,2.41,0.87,3.22,3.21,3.16c4.49-0.12,9,0.07,13.49-0.07c2.47-0.07,3.41,0.65,3.65,3.32
			c0.44,4.89-0.77,8.19-5.76,10.06c-3.43,1.29-6.81,2.69-10.41,3.33c-11.8,2.11-22-4.1-24.87-15.54
			c-2.34-9.32-2.37-18.86-0.06-28.18c2.09-8.44,7.46-14.16,16.31-15.56c8.54-1.34,15.96,0.59,20.22,9.06
			c0.67,1.33,1.59,1.56,2.83,1.35c8.18-1.4,16.37-2.81,24.55-4.22c2.06-0.35,2.64-1.24,1.9-3.43c-4.12-12.1-11.37-20.93-24.26-24.24
			c-9.33-2.4-18.83-2.26-28.3-1.78c-21.4,1.09-36.9,13.3-42.79,33.6c-3.95,13.63-3.64,27.29,1.03,40.72
			c5.39,15.48,15.86,25.7,32.13,28.95c22.25,4.44,42.98,0.68,61.68-12.7c1.86-1.33,2.43-2.85,2.42-5.04
			c-0.08-12.33-0.15-24.66,0.04-36.98c0.05-3.32-1.29-3.83-4.12-3.76C901.56,765.06,895.22,764.95,888.89,764.95z M327.01,772.35
			c0,15.5,0.01,30.99-0.01,46.49c0,2.24-0.27,4.19,3.16,4.17c25.49-0.12,50.99-0.11,76.48-0.03c2.79,0.01,3.35-1.16,3.29-3.59
			c-0.12-4.83-0.27-9.68,0.04-14.49c0.25-3.87-0.87-5.13-4.92-5.06c-14.16,0.26-28.33-0.04-42.49,0.19
			c-3.98,0.06-5.86-0.74-5.37-5.13c0.37-3.29,0.32-6.68,0.01-9.98c-0.36-3.9,0.91-5.14,4.94-5.05c12.83,0.26,25.66-0.01,38.49,0.17
			c3.32,0.05,4.41-0.96,4.23-4.24c-0.24-4.32-0.23-8.67,0-12.99c0.17-3.13-1.02-3.96-4.02-3.92c-11.33,0.15-22.66,0.06-33.99,0.06
			c-9.64,0-9.44,0-9.68-9.73c-0.1-4.04,0.87-5.44,5.18-5.36c13.82,0.28,27.66,0.03,41.49,0.16c3.07,0.03,4.57-0.57,4.35-4.07
			c-0.29-4.65-0.28-9.34,0-13.99c0.21-3.48-1.25-4.09-4.34-4.07c-24.16,0.1-48.32,0.13-72.48-0.02c-3.54-0.02-4.47,1.01-4.43,4.48
			C327.12,741.69,327.01,757.02,327.01,772.35z M523.36,822.94c-0.07-0.79,0-1.31-0.16-1.74c-11.65-32.16-23.34-64.31-34.93-96.5
			c-0.87-2.43-2.35-2.79-4.54-2.77c-8.32,0.07-16.65,0.24-24.96-0.07c-3.79-0.14-5.52,1.11-6.79,4.69
			c-7.79,21.9-15.85,43.71-23.78,65.56c-3.67,10.11-7.27,20.24-11.07,30.83c6.1,0,11.58,0.14,17.06-0.04
			c4.6-0.15,10.25,1.92,13.51-0.91c2.77-2.4,2.9-7.84,4.2-11.94c0.05-0.16,0.08-0.32,0.1-0.49c0.41-2.76,1.87-3.79,4.77-3.67
			c5.65,0.24,11.32,0.07,16.97,0.07c13.33,0,13.33,0,17.05,12.46c0.19,0.64,0.32,1.29,0.49,1.93c0.48,1.84,1.51,2.64,3.56,2.62
			C504.31,822.88,513.78,822.94,523.36,822.94z M175.13,824.93c2.38,0,3.88,0.02,5.38,0c19.41-0.36,33.93-11.54,39.42-30.09
			c0.97-3.29,0.79-5.06-3.04-5.94c-4.68-1.07-9.2-2.83-13.79-4.28c-7.97-2.51-7.97-2.51-11.15,5.31
			c-3.5,8.61-9.85,12.68-18.64,11.95c-8.5-0.7-14.39-6.08-16.06-15.19c-1.57-8.55-1.89-17.16-0.31-25.79
			c1.92-10.43,7.75-16.71,16.75-17.84c8.13-1.02,14.17,2.96,18.68,12.54c0.87,1.84,1.66,2.37,3.77,1.8
			c7.04-1.92,14.13-3.69,21.27-5.24c2.38-0.52,2.52-1.39,1.77-3.35c-3.02-7.88-6.87-15.26-13.86-20.32
			c-14.06-10.17-29.81-10.11-45.85-6.72c-12.61,2.66-22.38,9.81-27.8,21.5c-8.46,18.24-8.83,37.18-0.89,55.59
			C139.17,818.41,155.57,825.53,175.13,824.93z M508.84,626.46c0-18.64-0.19-37.28,0.13-55.92c0.08-4.67-1.37-5.49-5.61-5.38
			c-11.48,0.29-22.97,0.25-34.45,0.01c-3.8-0.08-5.11,0.68-5.09,4.85c0.18,37.95,0.15,75.89,0.03,113.84
			c-0.01,3.18,0.66,4.25,4.03,4.19c12.31-0.21,24.63-0.2,36.95,0c3.32,0.05,4.11-0.92,4.08-4.17
			C508.76,664.74,508.84,645.6,508.84,626.46z M274.66,822.96c11.66,0,23.32-0.1,34.98,0.07c3.21,0.05,4.45-0.79,4.3-4.16
			c-0.25-5.49-0.26-11,0-16.49c0.17-3.48-0.91-4.57-4.45-4.51c-12.49,0.2-24.99-0.13-37.48,0.19c-4.59,0.12-5.83-1.17-5.78-5.77
			c0.25-21.82,0.05-43.64,0.17-65.47c0.02-3.43-0.47-5.15-4.54-4.96c-7.31,0.34-14.66,0.25-21.98,0.03c-3.15-0.1-3.91,0.98-3.9,3.98
			c0.1,30.98,0.11,61.97-0.01,92.96c-0.01,3.27,0.92,4.25,4.19,4.2C251.67,822.85,263.16,822.96,274.66,822.96z M679.8,772.45
			c0-15.49-0.06-30.98,0.05-46.47c0.02-2.9-0.62-4.18-3.85-4.09c-7.66,0.21-15.32,0.18-22.98,0.01c-2.91-0.06-4.08,0.62-4.07,3.83
			c0.11,31.15,0.11,62.29,0,93.44c-0.01,3.22,1.18,3.89,4.08,3.82c7.32-0.16,14.67-0.32,21.98,0.05c4.21,0.21,4.91-1.41,4.86-5.13
			C679.7,802.76,679.81,787.6,679.8,772.45z M489.29,543.57c1.67-0.08,4.3,3.04,4.49-1.44c0.06-1.42,1.28-0.96,2.29-0.63
			c3.96,1.29,3.18,4.51,3.16,7.46c-0.01,1.18,0.05,2.5,1.53,2.7c1.04,0.14,1.37-0.88,1.34-1.71c-0.18-5.25,2.25-3.88,5.05-2.12
			c1.24,0.78,2.69,1.57,4.07,1.63c0.66,0.03,1.63-1.56,2.03-2.59c0.89-2.26-1.55-2.04-2.48-2.92c-1.59-1.51-6.7-1.81-1.73-5.45
			c0.38-0.28,0.61-1.33,0.38-1.72c-0.46-0.81-1.37-0.8-2.18-0.33c-1.15,0.67-2.26,1.42-3.42,2.06c-2.32,1.28-3.72-0.8-5.37-1.65
			c-2.42-1.23-0.2-1.91,0.54-2.72c0.99-1.09-0.16-1.43-0.73-1.79c-2.23-1.41-1.06-2.24,0.41-3.14c1.96-1.2,3.78-1.8,5.98-0.25
			c1.33,0.94,3.29,3.28,4.62,1.28c1.36-2.05-2.01-2.42-2.92-3.83c-0.16-0.25-0.16-0.61-0.28-1.08c1.09-0.67,2.24-1.32,3.33-2.06
			c1.44-0.98,4.16-1.02,2.61-4.13c-1.57-3.15-3.1-1.05-4.77-0.32c-1.47,0.64-2.66,2.03-4.42,1.83c-1.51-1.51,0.45-5.15-1.93-5.01
			c-3.01,0.17-1.18,3.46-1.62,5.36c-0.11,0.48-0.01,1.02-0.18,1.47c-0.73,1.96-2.68,2.46-4.3,3.08c-1.98,0.76-1.42-1.2-1.67-2.13
			c-0.24-0.84-0.61-0.92-1.41-0.76c-0.87,0.18-2.31,1.99-2.56-0.19c-0.23-1.98-1.1-4.41,1.08-6.02c0.93-0.69,2.06-1.08,3.04-1.71
			c0.92-0.59,2.49-1.05,1.92-2.47c-0.81-2-2.27-0.71-3.3-0.11c-2.91,1.67-2.96-0.12-2.9-2.22c0.04-1.33-0.03-2.67-0.02-4
			c0.01-1.59-0.95-1.9-2.28-1.91c-1.44,0-2.72,0.07-2.68,2.01c0.03,1.33-0.09,2.67,0,4c0.15,2.47-0.44,3.56-3.02,2.04
			c-0.88-0.52-2.14-1.64-2.9,0.09c-0.66,1.49,0.77,1.99,1.7,2.59c0.98,0.63,2.13,1.01,3.03,1.72c2.1,1.65,1.29,4.08,1.01,6.05
			c-0.31,2.13-1.74,0.29-2.62,0.1c-1.35-0.29-1.32,0.6-1.37,1.39c-0.13,2.21-1.03,1.79-2.56,1.06c-3.05-1.46-3.94-3.76-3.48-6.91
			c0.17-1.19-0.05-2.66-1.44-2.74c-1.63-0.1-1.35,1.52-1.52,2.62c-0.09,0.6-0.28,1.18-0.45,1.85c-2.67-0.46-4.31-2.24-6.26-3.42
			c-1.42-0.86-2.36-1.5-3.66,0.32c-1.29,1.8-1.09,2.85,0.66,3.99c2.28,1.48,4.48,3.07,7,4.81c-1.41,0.96-2.37,1.6-3.31,2.26
			c-0.83,0.58-1.82,1.29-1.22,2.38c0.6,1.08,1.69,0.73,2.61,0.18c0.71-0.43,1.5-0.78,2.12-1.31c2.72-2.33,5.89-1.18,6.78,1.03
			c0.72,1.78-0.59,4.69-0.01,7.15c0.03,0.11-0.53,0.34-0.79,0.55c-2.85,2.33-5.23,0.86-7.64-0.86c-0.94-0.67-2.07-1.43-3.04-0.15
			c-0.24,0.32,0.03,1.52,0.39,1.71c5.22,2.79,1.69,3.97-0.86,5.64c-1.32,0.86-2.82,2.36-1.54,4.1c1.02,1.39,2.7,0.76,4.11,0.09
			c1.46-0.69,2.66-2.01,4.4-2.01c1.78,1.43-0.65,5.48,2.3,5.13c2.52-0.29,0.96-3.7,1.34-5.7c0.12-0.64,0.11-1.67,0.48-1.85
			c1.73-0.81,4.23-4.39,5.17-1.46c1.26,3.9,3.04,0.68,4.42,1.39c-0.11,2.77,1.41,5.95-2.5,7.71c-1.44,0.65-4.37,1.2-3.08,3.53
			c1.08,1.95,2.8-0.64,4.32-0.78c0.32-0.03,0.64,0.04,1.4,0.09c0,1.6,0.1,3.23-0.03,4.84c-0.16,2.05,0.71,3.34,2.68,3.29
			c1.7-0.05,2.47-1.28,2.38-3.12c-0.09-1.72,0.12-3.46,0.22-5.62c1.33,0.59,2.05,0.95,2.8,1.23c0.98,0.37,2.16,1.61,2.91-0.12
			c0.64-1.48-0.73-2.23-1.73-2.56C488.94,550.94,488.42,547.84,489.29,543.57z"/>
		<path class="st1" d="M509.54,443.01c-116.3,0-232.59,0-348.89,0c-35.84,0-61.57-25.74-61.57-61.59c0-55.32-0.01-110.63,0-165.95
			c0.01-34.13,26.2-60.4,60.24-60.4c233.43-0.01,466.85-0.01,700.28,0c34.09,0,60.31,26.24,60.32,60.33
			c0.02,55.82,0.02,111.63,0,167.45c-0.01,33.78-26.29,60.15-59.99,60.16C743.13,443.02,626.33,443.01,509.54,443.01z
			 M509.48,341.03c128.13,0,256.26-0.02,384.38,0.1c4.17,0,5.14-1,5.12-5.14c-0.18-39.65-0.1-79.31-0.11-118.96
			c-0.01-24.55-16.39-40.91-40.96-40.91c-232.26,0-464.53,0-696.79,0c-24.59,0-41,16.35-41,40.87
			c-0.01,39.49,0.07,78.98-0.11,118.46c-0.02,4.42,0.93,5.7,5.57,5.69C253.55,341,381.52,341.03,509.48,341.03z M509.84,365.03
			c-127.79,0-255.58,0-383.37,0c-1,0-2.01,0.11-3-0.02c-2.51-0.32-3.58,0.46-3.41,3.23c0.24,3.98,0.06,7.99,0.06,11.99
			c0,25.59,16.11,41.73,41.65,41.73c231.76,0,463.51,0,695.27,0c1.33,0,2.67,0.02,4,0c18.34-0.38,33.65-13.56,37.08-31.61
			c1.2-6.31,0.22-12.65,0.84-18.92c0.5-5.02-0.86-6.54-6.24-6.53C765.09,365.06,637.47,365.03,509.84,365.03z"/>
		<path class="st2" d="M580.17,570.48c-1.24,1.26-0.68,2.8-0.68,4.17c-0.02,36.16-0.07,72.32,0.1,108.47
			c0.02,3.87-0.83,5.06-4.83,4.95c-10.82-0.3-21.66-0.21-32.49-0.03c-3,0.05-3.92-0.63-3.91-3.82
			c0.11-50.99,0.11-101.97,0.01-152.96c-0.01-3.28,0.87-4.23,4.21-4.2c19.16,0.16,38.32,0.15,57.48,0c3.36-0.03,4.4,1.14,5.2,4.33
			c7.38,29.15,15,58.25,22.57,87.35c0.37,1.41,0.89,2.78,1.68,5.2c3.91-15.18,7.56-29.32,11.2-43.46
			c4.27-16.57,8.64-33.12,12.73-49.73c0.7-2.86,1.8-3.7,4.65-3.69c19.33,0.11,38.66,0.13,57.98-0.01c3.2-0.02,3.85,1.13,3.84,4.07
			c-0.08,51.15-0.07,102.31,0,153.46c0,2.55-0.54,3.47-3.26,3.44c-11.5-0.14-23-0.24-34.49,0.04c-3.97,0.09-3.22-2.19-3.22-4.43
			c0.01-36.66,0.03-73.31,0.05-109.97c0-0.99,0-1.99,0-3.79c-2.83,3.54-2.86,7.27-3.72,10.57c-8.94,34.58-17.72,69.2-26.47,103.84
			c-0.73,2.88-2.04,3.84-5.07,3.77c-9.49-0.22-19-0.26-28.49,0.01c-3.5,0.1-4.77-0.95-5.63-4.37
			c-9.22-36.57-18.62-73.1-28.06-109.62C581.27,572.91,581.5,571.38,580.17,570.48z"/>
		<path class="st3" d="M297.83,687.97c-19.64,0-38.96-0.08-58.28,0.09c-2.97,0.03-3.57-1.8-4.53-3.66
			c-10.03-19.52-20.09-39.03-30-58.6c-1.41-2.78-2.17-3.59-4.66-0.87c-6.62,7.26-13.46,14.32-20.36,21.31
			c-1.93,1.95-2.62,3.96-2.59,6.64c0.12,10.49-0.05,20.99,0.11,31.48c0.04,2.74-0.53,3.72-3.49,3.68c-14.16-0.16-28.32-0.15-42.48,0
			c-2.86,0.03-3.55-0.82-3.54-3.6c0.08-51.14,0.08-102.28,0-153.42c0-2.85,0.39-4.03,3.71-3.97c13.99,0.22,27.99,0.19,41.98,0.02
			c3.19-0.04,3.85,1.07,3.83,4.02c-0.13,16.82-0.08,33.65-0.04,50.47c0,1.6-0.5,3.3,0.69,5.33c3.33-3.85,6.54-7.54,9.71-11.24
			c13-15.18,25.99-30.37,39-45.53c1.26-1.47,2.31-3.04,4.78-3.03c20.95,0.1,41.91,0.06,62.87,0.06c0.59,2.2-1.24,2.77-2.15,3.71
			c-17.35,17.98-34.69,35.97-52.23,53.76c-2.64,2.68-2.58,4.43-0.71,7.46c19.44,31.41,38.72,62.91,58.03,94.39
			C297.65,686.69,297.64,687.04,297.83,687.97z"/>
		<path class="st3" d="M735.91,687.97c5.48-14.51,10.81-28.61,16.14-42.71c14.32-37.89,28.68-75.77,42.86-113.71
			c1.24-3.32,2.68-4.58,6.36-4.52c15.33,0.24,30.66,0.16,45.99,0.04c2.49-0.02,3.87,0.58,4.79,3.05
			c19.59,52.22,39.26,104.42,58.9,156.62c0.05,0.13-0.04,0.32-0.19,1.23c-2.38,0-4.93,0-7.48,0c-13.5,0-26.99-0.08-40.49,0.06
			c-2.77,0.03-4.07-0.62-4.82-3.5c-1.68-6.42-3.95-12.68-5.75-19.07c-0.74-2.62-1.83-3.69-4.78-3.66c-16.33,0.17-32.66,0.17-48.99,0
			c-3.12-0.03-4.27,1-5,3.92c-1.62,6.44-3.67,12.77-5.56,19.14c-0.52,1.75-0.99,3.19-3.54,3.17
			C768.37,687.9,752.39,687.97,735.91,687.97z M840.63,627.11c-5.8-19.05-11.44-37.61-17.5-57.51
			c-5.96,19.39-11.52,37.45-17.06,55.51c-0.48,1.57,0.31,2.02,1.78,2.01C818.65,627.1,829.44,627.11,840.63,627.11z"/>
		<path class="st3" d="M314.17,607.68c0-25.31,0.08-50.62-0.09-75.93c-0.03-3.76,0.97-4.77,4.72-4.7
			c13.48,0.23,26.98,0.25,40.46-0.01c4.02-0.08,4.96,1.1,4.95,5.02c-0.15,37.13,0.01,74.27-0.22,111.4
			c-0.03,4.62,1.3,5.43,5.57,5.39c22.64-0.22,45.29-0.03,67.94-0.18c3.4-0.02,4.55,0.74,4.46,4.34c-0.25,10.48-0.2,20.98-0.02,31.47
			c0.05,2.92-0.87,3.56-3.63,3.55c-40.13-0.08-80.26-0.11-120.4,0.04c-3.77,0.01-3.8-1.65-3.79-4.45
			C314.2,658.3,314.17,632.99,314.17,607.68z"/>
		<path class="st4" d="M561.9,768.28c0,17.71-0.12,33.86,0.09,50.01c0.05,3.73-0.94,4.92-4.72,4.74
			c-6.65-0.31-13.32-0.23-19.98-0.02c-3.15,0.1-4.32-0.69-4.31-4.1c0.12-30.98,0.13-61.95,0-92.93c-0.01-3.45,1.22-4.17,4.34-4.08
			c6.82,0.2,13.66,0.2,20.48,0c2.84-0.08,4.48,0.9,6.02,3.27c9.98,15.34,20.12,30.58,30.21,45.85c1,1.51,2.02,3.01,3.08,4.59
			c1.83-1.2,1.02-2.84,1.02-4.15c0.07-14.82,0.15-29.65-0.03-44.47c-0.05-3.71,0.63-5.38,4.86-5.14c6.64,0.38,13.32,0.21,19.98,0.05
			c2.83-0.07,4.13,0.47,4.12,3.76c-0.12,31.14-0.11,62.29,0,93.43c0.01,3.12-0.94,4-3.98,3.91c-6.99-0.2-13.99-0.21-20.98,0.01
			c-2.87,0.09-4.47-0.97-6-3.31c-10-15.33-20.14-30.57-30.25-45.83C564.87,772.39,563.81,770.97,561.9,768.28z"/>
		<path class="st4" d="M766.15,775.25c0-15.95,0.16-31.89-0.1-47.84c-0.07-4.33,0.93-5.86,5.47-5.57
			c6.47,0.42,12.99,0.23,19.48,0.05c2.94-0.08,4.05,0.63,4.04,3.84c-0.12,31.14-0.12,62.29,0,93.43c0.01,3.22-1.12,3.91-4.05,3.84
			c-6.99-0.18-13.99-0.21-20.98,0.02c-2.92,0.1-4.46-1.08-5.97-3.39c-10.01-15.33-20.15-30.57-30.26-45.83
			c-0.97-1.47-2.04-2.87-3.91-5.48c0,2.92,0,4.48,0,6.05c0,14.82-0.05,29.65,0.05,44.47c0.02,2.79-0.42,4.27-3.75,4.16
			c-7.15-0.23-14.32-0.18-21.48-0.02c-2.8,0.06-3.73-0.8-3.72-3.66c0.09-31.31,0.08-62.62,0.01-93.93c-0.01-2.54,0.7-3.54,3.38-3.49
			c7.49,0.15,14.99,0.19,22.48-0.02c2.74-0.08,3.74,1.54,4.95,3.37c10.07,15.29,20.16,30.56,30.25,45.83
			c0.99,1.5,2.04,2.96,3.06,4.44C765.45,775.43,765.8,775.34,766.15,775.25z"/>
		<path class="st4" d="M888.89,764.95c6.33,0,12.66,0.11,18.99-0.05c2.83-0.07,4.17,0.44,4.12,3.76
			c-0.19,12.32-0.12,24.65-0.04,36.98c0.01,2.19-0.56,3.71-2.42,5.04c-18.69,13.38-39.42,17.14-61.68,12.7
			c-16.27-3.24-26.74-13.47-32.13-28.95c-4.67-13.43-4.98-27.09-1.03-40.72c5.88-20.31,21.38-32.51,42.79-33.6
			c9.46-0.48,18.97-0.61,28.3,1.78c12.89,3.31,20.14,12.15,24.26,24.24c0.74,2.18,0.16,3.07-1.9,3.43
			c-8.18,1.41-16.37,2.82-24.55,4.22c-1.24,0.21-2.16-0.02-2.83-1.35c-4.26-8.47-11.68-10.4-20.22-9.06
			c-8.86,1.39-14.22,7.12-16.31,15.56c-2.31,9.32-2.29,18.86,0.06,28.18c2.87,11.44,13.08,17.65,24.87,15.54
			c3.6-0.64,6.98-2.05,10.41-3.33c4.99-1.87,6.19-5.17,5.76-10.06c-0.24-2.67-1.19-3.39-3.65-3.32c-4.49,0.13-9-0.05-13.49,0.07
			c-2.34,0.06-3.27-0.75-3.21-3.16c0.13-4.83,0.15-9.66-0.01-14.49c-0.09-2.61,0.82-3.5,3.43-3.45
			C875.23,765.04,882.06,764.95,888.89,764.95z"/>
		<path class="st5" d="M327.01,772.35c0-15.33,0.1-30.66-0.08-45.99c-0.04-3.47,0.89-4.51,4.43-4.48
			c24.16,0.15,48.32,0.13,72.48,0.02c3.08-0.01,4.55,0.59,4.34,4.07c-0.28,4.65-0.29,9.34,0,13.99c0.21,3.5-1.28,4.09-4.35,4.07
			c-13.83-0.13-27.66,0.12-41.49-0.16c-4.3-0.09-5.28,1.31-5.18,5.36c0.24,9.72,0.04,9.73,9.68,9.73c11.33,0,22.66,0.09,33.99-0.06
			c3-0.04,4.19,0.79,4.02,3.92c-0.23,4.32-0.24,8.67,0,12.99c0.18,3.27-0.91,4.28-4.23,4.24c-12.83-0.18-25.66,0.09-38.49-0.17
			c-4.03-0.08-5.31,1.15-4.94,5.05c0.31,3.3,0.36,6.69-0.01,9.98c-0.49,4.39,1.38,5.19,5.37,5.13c14.16-0.23,28.33,0.07,42.49-0.19
			c4.05-0.07,5.18,1.19,4.92,5.06c-0.32,4.81-0.16,9.66-0.04,14.49c0.06,2.43-0.5,3.6-3.29,3.59c-25.49-0.08-50.99-0.09-76.48,0.03
			c-3.43,0.02-3.16-1.94-3.16-4.17C327.03,803.34,327.01,787.85,327.01,772.35z"/>
		<path class="st4" d="M523.36,822.94c-9.58,0-19.05-0.06-28.53,0.04c-2.05,0.02-3.08-0.79-3.56-2.62c-0.17-0.64-0.3-1.3-0.49-1.93
			c-3.72-12.46-3.72-12.46-17.05-12.46c-5.66,0-11.33,0.17-16.97-0.07c-2.91-0.12-4.36,0.91-4.77,3.67
			c-0.02,0.16-0.05,0.33-0.1,0.49c-1.3,4.1-1.43,9.53-4.2,11.94c-3.26,2.83-8.91,0.76-13.51,0.91c-5.47,0.18-10.96,0.04-17.06,0.04
			c3.8-10.58,7.4-20.72,11.07-30.83c7.94-21.85,15.99-43.66,23.78-65.56c1.27-3.58,3-4.83,6.79-4.69c8.31,0.3,16.64,0.14,24.96,0.07
			c2.19-0.02,3.67,0.34,4.54,2.77c11.59,32.19,23.28,64.33,34.93,96.5C523.36,821.63,523.3,822.15,523.36,822.94z M470.16,748.28
			c-3.57,12.03-6.69,22.64-9.85,33.23c-0.7,2.35,0.72,2.45,2.38,2.44c5.16-0.01,10.32-0.05,15.48,0.02
			c1.94,0.03,2.69-0.39,2.02-2.55C476.93,770.88,473.79,760.32,470.16,748.28z"/>
		<path class="st4" d="M175.13,824.93c-19.56,0.6-35.95-6.52-44.38-26.06c-7.94-18.4-7.57-37.35,0.89-55.59
			c5.42-11.69,15.19-18.83,27.8-21.5c16.04-3.39,31.8-3.45,45.85,6.72c6.98,5.05,10.84,12.43,13.86,20.32
			c0.75,1.96,0.61,2.83-1.77,3.35c-7.13,1.55-14.23,3.32-21.27,5.24c-2.1,0.57-2.9,0.04-3.77-1.8
			c-4.51-9.57-10.54-13.56-18.68-12.54c-8.99,1.13-14.83,7.4-16.75,17.84c-1.59,8.63-1.26,17.24,0.31,25.79
			c1.67,9.11,7.56,14.48,16.06,15.19c8.78,0.73,15.14-3.34,18.64-11.95c3.18-7.82,3.18-7.82,11.15-5.31
			c4.59,1.45,9.11,3.21,13.79,4.28c3.83,0.88,4.01,2.65,3.04,5.94c-5.49,18.55-20.01,29.72-39.42,30.09
			C179.01,824.96,177.51,824.93,175.13,824.93z"/>
		<path class="st2" d="M508.84,626.46c0,19.14-0.08,38.28,0.08,57.42c0.03,3.25-0.77,4.22-4.08,4.17c-12.31-0.2-24.63-0.2-36.95,0
			c-3.37,0.06-4.04-1.01-4.03-4.19c0.11-37.95,0.15-75.89-0.03-113.84c-0.02-4.17,1.3-4.93,5.09-4.85
			c11.48,0.24,22.97,0.28,34.45-0.01c4.23-0.11,5.69,0.72,5.61,5.38C508.65,589.17,508.84,607.82,508.84,626.46z"/>
		<path class="st5" d="M274.66,822.96c-11.49,0-22.99-0.11-34.48,0.07c-3.28,0.05-4.21-0.93-4.19-4.2
			c0.11-30.98,0.11-61.97,0.01-92.96c-0.01-3.01,0.75-4.08,3.9-3.98c7.32,0.22,14.67,0.32,21.98-0.03c4.07-0.19,4.56,1.53,4.54,4.96
			c-0.13,21.82,0.07,43.65-0.17,65.47c-0.05,4.6,1.19,5.89,5.78,5.77c12.49-0.32,24.99,0.01,37.48-0.19
			c3.54-0.06,4.62,1.03,4.45,4.51c-0.27,5.48-0.25,11,0,16.49c0.15,3.37-1.08,4.21-4.3,4.16
			C297.98,822.85,286.32,822.96,274.66,822.96z"/>
		<path class="st4" d="M679.8,772.45c0,15.16-0.11,30.31,0.08,45.47c0.04,3.72-0.65,5.34-4.86,5.13
			c-7.31-0.37-14.65-0.21-21.98-0.05c-2.9,0.06-4.09-0.6-4.08-3.82c0.11-31.15,0.11-62.29,0-93.44c-0.01-3.21,1.16-3.89,4.07-3.83
			c7.66,0.16,15.33,0.2,22.98-0.01c3.23-0.09,3.87,1.18,3.85,4.09C679.75,741.46,679.8,756.96,679.8,772.45z"/>
		<path class="st4" d="M489.29,543.57c-0.87,4.27-0.35,7.38,3.94,8.77c1,0.33,2.37,1.08,1.73,2.56c-0.75,1.73-1.92,0.5-2.91,0.12
			c-0.75-0.28-1.47-0.64-2.8-1.23c-0.1,2.16-0.32,3.9-0.22,5.62c0.1,1.83-0.67,3.07-2.38,3.12c-1.97,0.06-2.85-1.24-2.68-3.29
			c0.13-1.61,0.03-3.24,0.03-4.84c-0.76-0.05-1.09-0.12-1.4-0.09c-1.52,0.14-3.24,2.73-4.32,0.78c-1.29-2.33,1.64-2.89,3.08-3.53
			c3.91-1.76,2.38-4.93,2.5-7.71c-1.37-0.71-3.16,2.5-4.42-1.39c-0.94-2.93-3.44,0.65-5.17,1.46c-0.37,0.17-0.35,1.2-0.48,1.85
			c-0.38,2,1.18,5.41-1.34,5.7c-2.95,0.34-0.52-3.71-2.3-5.13c-1.74,0-2.94,1.32-4.4,2.01c-1.42,0.67-3.09,1.3-4.11-0.09
			c-1.28-1.74,0.22-3.25,1.54-4.1c2.55-1.66,6.08-2.84,0.86-5.64c-0.36-0.19-0.62-1.39-0.39-1.71c0.97-1.28,2.1-0.52,3.04,0.15
			c2.4,1.73,4.79,3.19,7.64,0.86c0.26-0.21,0.82-0.43,0.79-0.55c-0.58-2.46,0.72-5.38,0.01-7.15c-0.89-2.21-4.06-3.36-6.78-1.03
			c-0.62,0.53-1.41,0.88-2.12,1.31c-0.92,0.55-2.01,0.91-2.61-0.18c-0.6-1.09,0.39-1.8,1.22-2.38c0.95-0.66,1.9-1.3,3.31-2.26
			c-2.51-1.74-4.72-3.33-7-4.81c-1.75-1.14-1.96-2.19-0.66-3.99c1.31-1.82,2.25-1.19,3.66-0.32c1.94,1.18,3.59,2.96,6.26,3.42
			c0.16-0.67,0.35-1.25,0.45-1.85c0.17-1.1-0.11-2.72,1.52-2.62c1.39,0.08,1.62,1.55,1.44,2.74c-0.45,3.15,0.43,5.45,3.48,6.91
			c1.54,0.73,2.43,1.15,2.56-1.06c0.05-0.79,0.02-1.68,1.37-1.39c0.88,0.19,2.31,2.03,2.62-0.1c0.29-1.97,1.09-4.4-1.01-6.05
			c-0.9-0.71-2.06-1.09-3.03-1.72c-0.93-0.6-2.36-1.1-1.7-2.59c0.77-1.73,2.02-0.61,2.9-0.09c2.57,1.52,3.17,0.43,3.02-2.04
			c-0.08-1.33,0.03-2.67,0-4c-0.04-1.94,1.24-2.02,2.68-2.01c1.33,0,2.3,0.32,2.28,1.91c-0.01,1.33,0.05,2.67,0.02,4
			c-0.06,2.1-0.01,3.9,2.9,2.22c1.03-0.59,2.48-1.89,3.3,0.11c0.58,1.42-0.99,1.88-1.92,2.47c-0.98,0.63-2.11,1.02-3.04,1.71
			c-2.18,1.61-1.32,4.04-1.08,6.02c0.26,2.18,1.69,0.37,2.56,0.19c0.8-0.16,1.17-0.08,1.41,0.76c0.26,0.93-0.3,2.89,1.67,2.13
			c1.62-0.62,3.57-1.12,4.3-3.08c0.17-0.45,0.07-0.99,0.18-1.47c0.43-1.9-1.4-5.19,1.62-5.36c2.38-0.13,0.42,3.5,1.93,5.01
			c1.75,0.2,2.94-1.19,4.42-1.83c1.68-0.73,3.2-2.83,4.77,0.32c1.55,3.11-1.17,3.15-2.61,4.13c-1.09,0.75-2.24,1.39-3.33,2.06
			c0.12,0.47,0.12,0.83,0.28,1.08c0.91,1.41,4.28,1.78,2.92,3.83c-1.33,2.01-3.29-0.34-4.62-1.28c-2.2-1.55-4.02-0.95-5.98,0.25
			c-1.47,0.9-2.65,1.73-0.41,3.14c0.57,0.36,1.72,0.7,0.73,1.79c-0.73,0.81-2.96,1.48-0.54,2.72c1.65,0.84,3.05,2.93,5.37,1.65
			c1.16-0.64,2.27-1.39,3.42-2.06c0.81-0.47,1.72-0.48,2.18,0.33c0.22,0.39-0.01,1.45-0.38,1.72c-4.97,3.64,0.14,3.94,1.73,5.45
			c0.94,0.89,3.38,0.66,2.48,2.92c-0.4,1.03-1.37,2.62-2.03,2.59c-1.38-0.05-2.83-0.85-4.07-1.63c-2.8-1.76-5.23-3.13-5.05,2.12
			c0.03,0.83-0.3,1.85-1.34,1.71c-1.49-0.2-1.54-1.52-1.53-2.7c0.02-2.94,0.8-6.16-3.16-7.46c-1.01-0.33-2.23-0.8-2.29,0.63
			C493.6,546.61,490.96,543.48,489.29,543.57z M491.03,533.75c-0.82-2.18-2.34-4.23-4.31-4.44c-2.18-0.23-4.15,2.1-4.39,4.01
			c-0.27,2.17,2.07,4.14,4,4.39C488.55,538,489.67,535.46,491.03,533.75z"/>
		<path class="st0" d="M509.48,341.03c-127.96,0-255.92-0.03-383.88,0.12c-4.65,0.01-5.59-1.27-5.57-5.69
			c0.18-39.49,0.1-78.98,0.11-118.46c0-24.51,16.41-40.87,41-40.87c232.26,0,464.53,0,696.79,0c24.57,0,40.95,16.36,40.96,40.91
			c0.01,39.65-0.07,79.31,0.11,118.96c0.02,4.14-0.95,5.14-5.12,5.14C765.73,341.01,637.61,341.03,509.48,341.03z M798.42,322.03
			c17.82,0,35.64,0.01,53.45,0c8.12-0.01,13.19-4.59,13.05-11.72c-0.13-6.92-5.12-11.27-13.01-11.27c-35.3-0.01-70.6-0.01-105.91,0
			c-8.12,0-13.18,4.58-13.05,11.72c0.12,6.91,5.11,11.26,13.01,11.26C763.45,322.04,780.94,322.03,798.42,322.03z M712.28,297.03
			c-7.48,0.08-13.46,6.28-13.32,13.79c0.14,7.25,6.16,13.17,13.42,13.21c7.47,0.04,13.6-6.1,13.58-13.57
			C725.93,302.99,719.78,296.95,712.28,297.03z"/>
		<path class="st0" d="M509.84,365.03c127.62,0,255.25,0.04,382.87-0.14c5.38-0.01,6.74,1.52,6.24,6.53
			c-0.62,6.27,0.36,12.6-0.84,18.92c-3.42,18.05-18.74,31.24-37.08,31.61c-1.33,0.03-2.67,0-4,0c-231.76,0-463.51,0-695.27,0
			c-25.54,0-41.65-16.14-41.65-41.73c0-4,0.18-8.01-0.06-11.99c-0.17-2.77,0.9-3.55,3.41-3.23c0.98,0.13,2,0.02,3,0.02
			C254.26,365.03,382.05,365.03,509.84,365.03z"/>
		<path class="st0" d="M840.63,627.11c-11.18,0-21.98-0.01-32.77,0.02c-1.48,0-2.27-0.44-1.78-2.01
			c5.54-18.07,11.1-36.13,17.06-55.51C829.18,589.5,834.83,608.06,840.63,627.11z"/>
		<path class="st0" d="M470.16,748.28c3.63,12.04,6.77,22.61,10.03,33.14c0.67,2.16-0.09,2.58-2.02,2.55
			c-5.16-0.07-10.32-0.03-15.48-0.02c-1.66,0-3.08-0.09-2.38-2.44C463.47,770.91,466.6,760.31,470.16,748.28z"/>
		<path class="st0" d="M491.03,533.75c-1.36,1.7-2.48,4.25-4.7,3.96c-1.93-0.25-4.27-2.22-4-4.39c0.24-1.91,2.21-4.24,4.39-4.01
			C488.7,529.52,490.21,531.58,491.03,533.75z"/>
		<path class="st1" d="M798.42,322.03c-17.48,0-34.97,0.01-52.45,0c-7.89-0.01-12.89-4.35-13.01-11.26
			c-0.13-7.15,4.94-11.72,13.05-11.72c35.3-0.01,70.6-0.01,105.91,0c7.89,0,12.87,4.35,13.01,11.27
			c0.14,7.13-4.94,11.71-13.05,11.72C834.06,322.04,816.24,322.03,798.42,322.03z"/>
		<path class="st2" d="M712.28,297.03c7.5-0.08,13.65,5.96,13.68,13.44c0.03,7.47-6.11,13.6-13.58,13.57
			c-7.26-0.04-13.28-5.96-13.42-13.21C698.81,303.32,704.79,297.12,712.28,297.03z"/>
	</g>
</g>
</svg>
