<?xml version="1.0" encoding="utf-8"?>
<!-- Generator: Adobe Illustrator 26.0.1, SVG Export Plug-In . SVG Version: 6.00 Build 0)  -->
<svg version="1.1" id="Layer_1" xmlns="http://www.w3.org/2000/svg" xmlns:xlink="http://www.w3.org/1999/xlink" x="0px" y="0px"
	 viewBox="0 0 1000 236.7" style="enable-background:new 0 0 1000 236.7;" xml:space="preserve">
<style type="text/css">
	.st0{fill:#070707;}
	.st1{fill:#050505;}
	.st2{fill:#030303;}
	.st3{fill:#045389;}
	.st4{fill:#FDFDFD;}
</style>
<g>
	<g>
		<path class="st0" d="M270.6,36.8c67.2,0,134.3,0,201.5,0c17.5,0,31.2,10.8,34.9,27.2c0.6,2.8,0.7,5.6,0.7,8.4c0,31.7,0,63.3,0,95
			c0,21.1-14.7,35.8-35.8,35.8c-134.3,0-268.7,0-403,0c-21.2,0-36-14.8-36-36.1c0-31.4,0-62.8,0-94.2c0-21.5,14.7-36.2,36.3-36.2
			C136.3,36.8,203.4,36.8,270.6,36.8z M269.9,144.2c73.9,0,147.9,0,221.8,0.1c3.1,0,3.8-0.8,3.8-3.9c-0.1-22.4-0.1-44.8-0.1-67.2
			c0-15.1-9-24.2-24.1-24.2c-134.1,0-268.1,0-402.2,0C54.1,49,45,58.2,45,73.2c0,22.3,0.1,44.6-0.1,66.9c0,3.4,0.9,4.2,4.2,4.2
			C122.8,144.2,196.4,144.2,269.9,144.2z M270.2,158.2c-72.3,0-144.7,0-217,0c-8.1,0-7.7,0-8.2,7.9c-0.8,14.2,9.8,25.1,25,25
			c133-0.3,265.9-0.2,398.9-0.2c1.7,0,3.5,0,5.2,0c11.6-0.4,21-9.7,21.4-21.3c0.1-2.5-0.2-5,0.1-7.4c0.5-3.6-1-4.2-4.3-4.2
			C417.6,158.2,343.9,158.2,270.2,158.2z"/>
		<path class="st1" d="M812,95.9c3.2-12.4,6.4-24.7,9.5-37.1c0.2-0.8,0.4-1.7,0.7-2.5c1.1-3.6,0.6-8.7,3.4-10.5
			c2.6-1.7,7.1-0.5,10.8-0.6c6.8,0,13.5,0.1,20.3,0c2.2,0,3.2,0.2,3.2,2.9c-0.1,26.6-0.1,53.2,0,79.8c0,2.3-0.5,3-2.8,2.9
			c-5.3-0.2-10.6-0.2-15.9,0c-2.8,0.1-3.1-1-3.1-3.4c0.1-18.7,0.1-37.4,0-56.1c0-0.9,0.4-1.9-0.6-3.1c-2.6,10.1-5.2,19.9-7.7,29.8
			c-2.6,10-5.2,20-7.6,30c-0.5,2.3-1.6,2.9-3.8,2.8c-4.4-0.1-8.9-0.2-13.3,0c-2.6,0.1-3.5-0.7-4.2-3.2c-4.7-18.8-9.5-37.7-14.4-56.5
			c-0.2-0.9-0.1-2-1.1-2.6c-0.7,1.6-0.2,3.2-0.2,4.7c0,18.1-0.1,36.2,0,54.3c0,2.5-0.5,3.4-3.2,3.3c-5.4-0.2-10.8-0.1-16.3,0
			c-1.9,0-2.5-0.5-2.5-2.5c0.1-26.8,0.1-53.7,0-80.5c0-2.3,0.8-2.6,2.8-2.6c9.8,0.1,19.7,0.1,29.6,0c2.3,0,2.9,0.9,3.4,2.8
			c3.8,15,7.7,30,11.6,45c0.2,0.9,0.5,1.9,0.8,2.8C811.6,95.8,811.8,95.9,812,95.9z"/>
		<path class="st2" d="M571.4,77.4c7.8-9.1,15.2-17.1,21.9-25.7c3.8-4.9,7.8-7.1,14.2-6.6c8.6,0.6,17.4,0.2,26.8,0.2
			c-4.7,4.8-8.8,9.1-13,13.5c-5.2,5.4-10.3,10.9-15.7,16.1c-2,2-2.3,3.3-0.7,5.8c10.1,16.2,20,32.5,30,48.7c0.2,0.3,0.3,0.6,0.6,1.4
			c-8,0-15.7-0.5-23.3,0.1c-6.8,0.6-10.6-1.4-13.3-8c-3.9-9.2-9-17.9-13.2-26c-4.4,4-8.9,8-13.4,12c-1.1,1-0.8,2.2-0.8,3.4
			c0,5.2-0.1,10.3,0,15.5c0,1.9-0.3,2.9-2.5,2.8c-7.2-0.1-14.3-0.1-21.4,0c-2.1,0-2.4-0.8-2.4-2.6c0-26.8,0.1-53.7,0-80.6
			c0-2,0.6-2.5,2.5-2.5c7,0.1,14,0.2,21.1,0c2.4-0.1,2.8,0.8,2.8,3c-0.1,8.2,0,16.5,0,24.8C571.4,74,571.4,75.2,571.4,77.4z"/>
		<path class="st2" d="M868.6,130.2c4-10.6,8-21.3,12.1-31.9c6.3-16.7,12.6-33.3,18.8-50c0.8-2.3,1.8-3.2,4.5-3.1
			c7.6,0.2,15.3,0.2,22.9,0c2.1,0,3,0.6,3.7,2.6c10,26.7,20.1,53.4,30.2,80c0.9,2.4,0.8,3.1-2,3.1c-7.3-0.2-14.5-0.1-21.8,0
			c-2.2,0-3.2-0.4-3.9-2.7c-1.1-3.8-1-8.9-3.9-10.7c-2.9-1.8-7.6-0.5-11.6-0.5c-5.2,0-10.3,0.1-15.5-0.1c-1.7,0-2.7,0.4-3.1,2.2
			c-0.7,3-1.8,5.9-2.5,8.9c-0.5,2.1-1.3,3-3.7,3c-7.8-0.2-15.5-0.1-23.3-0.1C869.2,130.7,869,130.5,868.6,130.2z M915.1,68.7
			c-0.2,0-0.5,0.1-0.7,0.1c-3,9.7-5.9,19.5-8.9,29.3c6.3,0,12.3,0,18.6,0C921,88.1,918,78.4,915.1,68.7z"/>
		<path class="st1" d="M644.2,87.7c0-13,0.1-26.1-0.1-39.1c0-2.9,0.8-3.5,3.5-3.4c6.6,0.2,13.3,0.2,19.9,0c2.7-0.1,3.2,0.7,3.2,3.3
			c-0.1,19.3,0,38.6-0.1,58c0,2.8,0.7,3.4,3.4,3.4c11.6-0.2,23.2,0,34.7-0.1c2.5,0,3.4,0.6,3.3,3.2c-0.2,4.9-0.2,9.8,0,14.8
			c0.1,2.4-0.6,3.1-3,3.1c-20.7-0.1-41.4-0.1-62.1,0c-2.3,0-2.9-0.6-2.9-2.9C644.2,114.5,644.2,101.1,644.2,87.7z"/>
		<path class="st3" d="M795.2,177.2c0-8.4,0.2-16.6-0.1-24.8c-0.1-3.1,0.9-4,3.9-3.8c2.9,0.2,5.9,0.1,8.9,0c1.8-0.1,2.7,0.3,2.6,2.4
			c-0.1,16.4-0.1,32.8,0,49.1c0,1.8-0.6,2.5-2.4,2.3c-0.4,0-0.8-0.1-1.1,0c-8.8,1.8-14.3-1.7-18.4-9.6c-3.4-6.6-8.1-12.5-12.9-18.5
			c0,8.2-0.1,16.3,0.1,24.5c0.1,2.9-0.6,4-3.6,3.7c-3.2-0.3-6.4-0.1-9.6,0c-1.6,0-2.2-0.5-2.2-2.1c0-16.5,0-33,0-49.5
			c0-1.9,0.9-2.2,2.5-2.2c3.3,0.1,6.7,0.2,10,0c2.2-0.1,3.3,0.8,4.4,2.5c5,7.8,10.1,15.4,15.2,23.1
			C793.2,175.2,793.6,176.5,795.2,177.2z"/>
		<path class="st3" d="M884.6,177c0-8.2,0.2-16.4-0.1-24.6c-0.1-3.1,0.9-4.1,3.9-3.8c2.9,0.3,5.9,0.1,8.9,0c1.8-0.1,2.7,0.3,2.7,2.4
			c-0.1,16.4-0.1,32.8,0,49.1c0,1.8-0.6,2.4-2.3,2.3c-3.7-0.1-7.4-0.1-11.1,0c-2.1,0.1-2.7-1.3-3.6-2.6
			c-5.1-7.7-10.2-15.4-15.3-23.1c-0.6-0.9-1.2-1.8-2.4-3.6c0,9.2-0.1,17.4,0.1,25.6c0.1,2.9-0.7,3.9-3.7,3.7c-3.1-0.2-6.2-0.1-9.2,0
			c-2,0.1-2.5-0.7-2.5-2.6c0.1-16.2,0.1-32.5,0-48.8c0-2,0.6-2.7,2.5-2.5c0.2,0,0.5,0.1,0.7,0c8.7-1.8,14.4,1.5,18.4,9.6
			c3.4,6.7,8.2,12.7,12.4,19C884.1,177.1,884.3,177.1,884.6,177z"/>
		<path class="st3" d="M950,171.6c3.3,0,6.7,0.1,10,0c1.6,0,2.2,0.5,2.2,2.1c-0.1,6.5,0,13.1,0,19.6c0,1.3-0.5,2-1.5,2.7
			c-10.9,7.6-22.8,9.3-35.5,5.9c-2.9-0.8-5.4-2.4-7.6-4.4c-11.4-10.2-11.4-33.5,0.1-43.7c2.7-2.4,5.8-4.2,9.3-5
			c6.9-1.6,14-1.6,20.9-0.1c6.8,1.4,10.7,6.1,13,12.4c0.6,1.6,0.3,2.2-1.4,2.4c-2.4,0.3-4.8,0.8-7.3,1.3c-3.3,0.6-6,1.3-8.8-2.4
			c-3.9-4.9-13.5-2.8-16.2,3.3c-3,6.7-2.9,13.8,0,20.4c2.7,6,10.8,7.3,18.2,3.5c2.3-1.2,2.9-2.7,2.7-5c-0.1-1.5-0.7-2-2-1.9
			c-0.4,0-0.7,0-1.1,0c-8.3-0.1-9-0.9-7.8-9.4c0.2-1.9,1.3-1.8,2.5-1.8C943,171.6,946.5,171.6,950,171.6z"/>
		<path class="st3" d="M650.9,175.5c0-7.9,0.1-15.8,0-23.6c0-2.3,0.4-3.2,3-3.2c12.6,0.1,25.1,0.1,37.7,0c2.1,0,2.7,0.7,2.7,2.7
			c0.2,9.1,0.3,9.1-8.9,9.1c-4.9,0-9.9,0.2-14.8-0.1c-3.2-0.2-3.7,1.1-3.5,3.8c0.2,2.3-0.5,4.6,3.4,4.4c6.1-0.4,12.3,0,18.5-0.1
			c2.4-0.1,3.4,0.4,3.4,3.2c-0.1,8.1,0.1,8.1-8.1,8.1c-4.9,0-9.8,0.1-14.8,0c-1.7,0-2.3,0.5-2.4,2.3c-0.5,8.2-0.5,8.2,7.8,8.2
			c5.8,0,11.6,0.1,17.4,0c2,0,2.8,0.5,2.8,2.6c0.3,9.7,0.4,9.7-9.3,9.7c-10.6,0-21.2-0.1-31.8,0.1c-2.4,0-3.2-0.6-3.1-3.1
			C651,191.5,650.9,183.5,650.9,175.5z"/>
		<path class="st3" d="M698.8,202.5c5.8-15.8,11.3-31.1,16.9-46.3c2.7-7.5,2.8-7.5,10.9-7.5c9.5,0,9.5,0,12.8,9
			c5,13.7,9.9,27.5,15.1,41.2c1.3,3.4,0.4,4-2.8,3.6c-1.6-0.2-3.2,0-4.8,0c-7.7,0-7.7,0-10.2-7c-0.6-1.7-1.4-2-2.9-2
			c-4.4,0.1-8.9,0.1-13.3,0c-2.2-0.1-2.9,0.8-3.5,2.8c-1.7,6.3-1.8,6.2-8.5,6.2C705.5,202.5,702.4,202.5,698.8,202.5z M727.4,163.8
			c-0.2,0-0.5,0-0.7,0.1c-1,3.3-1.9,6.5-2.8,9.8c-2.7,9.1-2.7,9,7,8.1c1.4-0.1,2-0.4,1.5-1.9C730.6,174.5,729,169.1,727.4,163.8z"/>
		<path class="st2" d="M747.6,98c0,9.8-0.1,19.7,0.1,29.5c0,2.7-0.7,3.3-3.3,3.2c-6-0.2-12.1-0.1-18.1,0c-1.9,0-2.5-0.4-2.5-2.4
			c0.1-20.2,0.1-40.4,0-60.6c0-1.8,0.5-2.3,2.3-2.3c6.4,0.1,12.8,0.1,19.2,0c2.1,0,2.4,0.8,2.3,2.6C747.6,78.1,747.6,88,747.6,98z"
			/>
		<path class="st3" d="M570.5,147.7c11.8,0.1,18.9,4.6,22.7,14.3c0.7,1.7,0.8,2.7-1.4,3c-1.8,0.2-3.6,0.9-5.4,1.3
			c-3.5,0.9-6.4,2.2-9-2.8c-3.2-6.1-12.8-4.6-15.6,2c-2.9,6.8-2.7,14,0,20.9c1.4,3.6,4.7,4.9,8.4,4.8c4.1-0.1,6.9-2.1,8.6-5.8
			c2.1-4.6,2.1-4.6,7.1-3c1.1,0.3,2.1,0.7,3.2,1c6,1.9,6,1.9,3.4,7.6c-3,6.6-8.1,10.7-15.3,12c-13.2,2.5-24.3-1.4-29.6-11.3
			c-5.7-10.8-5.7-22.2,0.2-32.9C552.7,150,561.1,147.6,570.5,147.7z"/>
		<path class="st3" d="M602.5,175.4c0-8,0.1-16,0-24c0-2,0.5-2.8,2.7-2.7c3.6,0.2,7.2,0.2,10.7,0c2.7-0.2,3,1,3,3.2
			c-0.1,11.2,0,22.4-0.1,33.6c0,2.9,0.7,3.9,3.7,3.7c6.2-0.2,12.3,0.1,18.5-0.1c2.5-0.1,3.2,0.8,3.1,3.1c-0.2,2.7-0.1,5.4,0,8.1
			c0,1.6-0.6,2.1-2.2,2.1c-12.3,0-24.7-0.1-37,0c-2.2,0-2.3-1.1-2.3-2.8C602.5,191.7,602.5,183.5,602.5,175.4z"/>
		<path class="st3" d="M822.2,175.2c0-7.7,0.1-15.5,0-23.2c0-2.4,0.4-3.6,3.2-3.4c3.5,0.2,7.1,0.1,10.7,0c2-0.1,2.5,0.6,2.5,2.6
			c-0.1,16.2-0.1,32.4,0,48.7c0,2.2-0.8,2.7-2.8,2.6c-3.6-0.1-7.1-0.2-10.7,0c-2.4,0.1-2.9-0.8-2.9-2.9
			C822.3,191.5,822.2,183.4,822.2,175.2z"/>
		<path class="st3" d="M728.3,59.2c-0.9-2.6-1.5-4.7-4-2.6c-0.5,0.4-1.2,0.4-1.7-0.2c-0.6-0.8-0.1-1.6,0.5-1.9
			c2.3-1.1,2.6-2.3-0.2-4c2.8-0.7,5.2,2.8,6.8-0.3c0.2-0.3,0.9-2.4,0-3.5c-2.1-2.5-3.9,0.6-5.8,0.6c-0.7-1.9,1.8-1.6,1.6-3.2
			c-0.8-0.5-1.7-1-2.6-1.7c-0.7-0.5-1.9-1-1.1-2.3c0.8-1.2,1.7-0.9,2.5-0.2c1.7,1.6,3.1,1.5,4.2-1.4c0.8,2.5,0.1,5.3,2.8,5.7
			c1,0.2,2.6-0.8,3.1-1.7c1.4-2.8-2.2-3.2-3-5c1.1-1,1.9,0.5,2.8,0.1c1.2-1.3-1-4.4,1.7-4.5c2.8,0,0.6,3.1,1.8,4.5
			c0.8,0.4,1.5-1.2,2.8-0.3c-0.4,2-4.7,2.3-2.8,5.1c0.3,0.4,1.8,2.7,4,1.5c2.1-1.2,0.2-3.6,2.1-5c0.4,2.9,1.7,3.5,3.8,1.7
			c0.7-0.6,1.4-0.3,1.8,0.5c0.4,0.8,0.2,1.5-0.6,1.8c-2.3,1-3.5,2.2,0.6,4.6c-3.5-0.4-5.7-3-7.6-0.5c-0.5,0.7-0.1,2.6,0.6,3.5
			c1.6,2.1,3.5,0.2,5.9-0.4c-1.3,2-2.1,3.5,0.5,4.2c0.9,0.2,1.9,0.9,1,2.2c-0.6,1-1.5,0.8-2.2,0.2c-2.4-2-3.5-1-3.8,2.2
			c-1.8-2.2,0-5.9-3.5-6c-0.3,0-2.5,1.1-2.9,2.3c-1,2.7,2,3.1,3.3,4.5c-1.3,1.5-2.2-0.3-3.2,0.2c-1.1,1.2,1,4.1-1.7,4.1
			c-2.5,0-0.8-2.6-1.6-4.1c-0.9-0.7-1.7,1.2-3,0.3c0.5-2,4.7-2.4,3.1-5.5C732.5,51.2,729.6,52.9,728.3,59.2z M735.9,51.1
			c1.2,0,1.8-1.5,2-2.3c0.2-1.2-1-2.3-2.2-2.3c-1,0-2,1-2,2.2C733.7,49.7,734.1,51.1,735.9,51.1z"/>
		<path class="st4" d="M732.3,179.8c0.5,1.6,0,1.8-1.5,1.9c-9.6,0.9-9.6,0.9-7-8.1c1-3.3,1.9-6.5,2.8-9.8c0.2,0,0.5,0,0.7-0.1"/>
		<path class="st0" d="M437.5,133.3c-10,0-19.9,0-29.9,0c-5,0-8-2.6-8.1-6.6c0-4,3.1-6.7,8-6.7c20.2,0,40.4,0,60.5,0
			c4.9,0,7.9,2.7,7.8,6.8c-0.1,4-3,6.5-7.8,6.5C457.9,133.3,447.7,133.3,437.5,133.3z"/>
		<path class="st0" d="M387.7,118.9c4.2,0,7.8,3.5,7.9,7.7c0.1,4.3-3.7,8-8,7.9c-4.2-0.1-7.6-3.6-7.6-7.9S383.4,118.9,387.7,118.9z"
			/>
	</g>
</g>
</svg>
